<svg xmlns="http://www.w3.org/2000/svg" xmlns:xlink="http://www.w3.org/1999/xlink" width="710" height="140"><defs><rect id="a" x="220.084" y="2" width="526.832" height="138"/></defs><clipPath id="b"><use xlink:href="#a" overflow="visible"/></clipPath><g clip-path="url(#b)"><path fill="#CCE399" d="M443.953 5.772c70.693 0 128 57.457 128 128.337 0 70.879-57.307 128.34-128 128.34s-128-57.463-128-128.34c-.002-70.88 57.309-128.337 128-128.337z"/><path fill="#B2D666" d="M443.869 17.801c64.063 0 116 52.071 116 116.307 0 64.232-51.937 116.306-116 116.306-64.066 0-116-52.072-116-116.306-.002-64.236 51.934-116.307 116-116.307z"/><path fill="#99C833" d="M443.951 29.715c57.438 0 104 46.688 104 104.277 0 57.592-46.562 104.275-104 104.275s-104-46.685-104-104.275 46.563-104.277 104-104.277z"/><path fill="#7FBA00" d="M443.936 41.865c50.812 0 91.998 41.3 91.998 92.243 0 50.944-41.186 92.244-91.998 92.244-50.809 0-91.998-41.3-91.998-92.244 0-50.943 41.189-92.243 91.998-92.243z"/><path fill="#fff" d="M443.951 53.899c44.184 0 80 35.91 80 80.208 0 44.304-35.818 80.215-80 80.215-44.185 0-80-35.914-80-80.215 0-44.298 35.817-80.208 80-80.208z"/><path fill="#fff" d="M648.5 116.002c0 55.225-44.771 99.998-100 99.998s-100-44.773-100-99.998c0-55.229 44.771-100.002 100-100.002 55.23 0 100 44.774 100 100.002z"/><path fill="#fff" d="M704.5 138c0 27.613-22.385 50-50 50-27.614 0-50-22.387-50-50 0-27.614 22.386-50 50-50 27.615 0 50 22.386 50 50z"/></g><defs><rect id="c" x="220.084" y="2" width="526.832" height="138"/></defs><clipPath id="d"><use xlink:href="#c" overflow="visible"/></clipPath><path clip-path="url(#d)" fill="#fff" d="M424.5 157.727c0 44.18-35.816 79.998-80 79.998-44.183 0-80-35.818-80-79.998 0-44.184 35.817-80.002 80-80.002 44.184 0 80 35.818 80 80.002z"/><defs><rect id="e" x=".5" y="42" width="281" height="98"/></defs><clipPath id="f"><use xlink:href="#e" overflow="visible"/></clipPath><g clip-path="url(#f)" fill="#fff"><circle cx="145.538" cy="169.15" r="80"/><path d="M60.391 112.242c27.615 0 50 22.391 50 50.002 0 27.613-22.385 49.998-50 49.998-27.614 0-50-22.385-50-49.998 0-27.611 22.385-50.002 50-50.002zM215.391 121.242c27.615 0 50 22.391 50 50.002 0 27.613-22.385 49.998-50 49.998-27.614 0-50-22.385-50-49.998 0-27.611 22.385-50.002 50-50.002z"/></g></svg>